<svg xmlns="http://www.w3.org/2000/svg" xmlns:xlink="http://www.w3.org/1999/xlink" width="108" height="108" viewBox="0 0 108 108">
  <defs>
    <filter id="Trazado_904820" x="0" y="0" width="108" height="108" filterUnits="userSpaceOnUse">
      <feOffset dy="3" input="SourceAlpha"/>
      <feGaussianBlur stdDeviation="3" result="blur"/>
      <feFlood flood-opacity="0.161"/>
      <feComposite operator="in" in2="blur"/>
      <feComposite in="SourceGraphic"/>
    </filter>
  </defs>
  <g id="Icono" transform="translate(-615.101 6)">
    <g transform="matrix(1, 0, 0, 1, 615.1, -6)" filter="url(#Trazado_904820)">
      <g id="Trazado_904820-2" data-name="Trazado 904820" transform="translate(9 6)" fill="#ecf4fa">
        <path d="M 45 88.5 C 39.12687683105469 88.5 33.43022537231445 87.35007476806641 28.06830024719238 85.08217620849609 C 22.88852500915527 82.89131164550781 18.23629951477051 79.75458526611328 14.2408504486084 75.75914764404297 C 10.24541282653809 71.76370239257812 7.108687400817871 67.11147308349609 4.917825222015381 61.93170166015625 C 2.649924993515015 56.56977462768555 1.5 50.87312316894531 1.5 45 C 1.5 39.12687683105469 2.649924993515015 33.43022537231445 4.917825222015381 28.06830024719238 C 7.108687400817871 22.88852500915527 10.24541282653809 18.23629951477051 14.2408504486084 14.2408504486084 C 18.23629951477051 10.24541282653809 22.88852500915527 7.108687400817871 28.06830024719238 4.917825222015381 C 33.43022537231445 2.649924993515015 39.12687683105469 1.5 45 1.5 C 50.87312316894531 1.5 56.56977462768555 2.649924993515015 61.93170166015625 4.917825222015381 C 67.11147308349609 7.108687400817871 71.76370239257812 10.24541282653809 75.75914764404297 14.2408504486084 C 79.75458526611328 18.23629951477051 82.89131164550781 22.88852500915527 85.08217620849609 28.06830024719238 C 87.35007476806641 33.43022537231445 88.5 39.12687683105469 88.5 45 C 88.5 50.87312316894531 87.35007476806641 56.56977462768555 85.08217620849609 61.93170166015625 C 82.89131164550781 67.11147308349609 79.75458526611328 71.76370239257812 75.75914764404297 75.75914764404297 C 71.76370239257812 79.75458526611328 67.11147308349609 82.89131164550781 61.93170166015625 85.08217620849609 C 56.56977462768555 87.35007476806641 50.87312316894531 88.5 45 88.5 Z" stroke="none"/>
        <path d="M 45 3 C 39.32871246337891 3 33.82865524291992 4.110054016113281 28.65262985229492 6.299339294433594 C 23.65165710449219 8.414573669433594 19.15968322753906 11.44334411621094 15.301513671875 15.301513671875 C 11.44334411621094 19.15968322753906 8.414573669433594 23.65165710449219 6.299339294433594 28.65262985229492 C 4.110054016113281 33.82865524291992 3 39.32871246337891 3 45 C 3 50.67128753662109 4.110054016113281 56.17134475708008 6.299339294433594 61.34737396240234 C 8.414573669433594 66.34834289550781 11.44334411621094 70.84031677246094 15.301513671875 74.698486328125 C 19.15968322753906 78.55665588378906 23.65165710449219 81.58542633056641 28.65262985229492 83.70066070556641 C 33.82865524291992 85.88994598388672 39.32871246337891 87 45 87 C 50.67128753662109 87 56.17134475708008 85.88994598388672 61.34737396240234 83.70066070556641 C 66.34834289550781 81.58542633056641 70.84031677246094 78.55665588378906 74.698486328125 74.698486328125 C 78.55665588378906 70.84031677246094 81.58542633056641 66.34834289550781 83.70066070556641 61.34737396240234 C 85.88994598388672 56.17134475708008 87 50.67128753662109 87 45 C 87 39.32871246337891 85.88994598388672 33.82865524291992 83.70066070556641 28.65262985229492 C 81.58542633056641 23.65165710449219 78.55665588378906 19.15968322753906 74.698486328125 15.301513671875 C 70.84031677246094 11.44334411621094 66.34834289550781 8.414573669433594 61.34737396240234 6.299339294433594 C 56.17134475708008 4.110054016113281 50.67128753662109 3 45 3 M 45 0 C 69.85281372070312 0 90 20.14718627929688 90 45 C 90 69.85281372070312 69.85281372070312 90 45 90 C 20.14718627929688 90 0 69.85281372070312 0 45 C 0 20.14718627929688 20.14718627929688 0 45 0 Z" stroke="none" fill="#2a5673"/>
      </g>
    </g>
    <g id="Grupo_1144129" data-name="Grupo 1144129" transform="translate(642.067 17.822)">
      <g id="Grupo_1144131" data-name="Grupo 1144131" transform="translate(1 1.24)">
        <path id="Trazado_980671" data-name="Trazado 980671" d="M40.681,35.645c-.193.537-.412,1.067-.647,1.579a2.394,2.394,0,0,0,.227,2.444l2.259,3.107a2.419,2.419,0,0,1-.227,3.107L40.5,47.7a2.384,2.384,0,0,1-3.133.235l-2.99-2.242a2.378,2.378,0,0,0-2.477-.227,15.974,15.974,0,0,1-1.512.638A2.419,2.419,0,0,0,28.831,48l-.563,3.788A2.4,2.4,0,0,1,25.9,53.836H23.406a2.4,2.4,0,0,1-2.368-2.049L20.475,48a2.4,2.4,0,0,0-1.562-1.9c-.512-.185-1.016-.4-1.512-.638a2.4,2.4,0,0,0-2.477.227l-2.99,2.242A2.394,2.394,0,0,1,8.8,47.7L7.013,45.883a2.408,2.408,0,0,1-.227-3.107l2.259-3.107a2.413,2.413,0,0,0,.227-2.444,15.185,15.185,0,0,1-.647-1.579,2.4,2.4,0,0,0-1.89-1.579l-3.7-.571A2.409,2.409,0,0,1,1,31.119v-2.6a2.409,2.409,0,0,1,2.032-2.377l3.7-.571a2.4,2.4,0,0,0,1.89-1.579c.193-.537.4-1.067.647-1.579a2.412,2.412,0,0,0-.218-2.444L6.786,16.859a2.419,2.419,0,0,1,.227-3.107L8.8,11.937a2.384,2.384,0,0,1,3.133-.235l3,2.242a2.4,2.4,0,0,0,2.477.227c.487-.235.991-.445,1.5-.638a2.4,2.4,0,0,0,1.562-1.9l.563-3.8A2.4,2.4,0,0,1,23.406,5.79H25.9a2.4,2.4,0,0,1,2.368,2.049l.563,3.8a2.4,2.4,0,0,0,1.562,1.9,13.913,13.913,0,0,1,1.5.638,2.4,2.4,0,0,0,2.477-.227l3-2.242a2.394,2.394,0,0,1,3.133.235l1.789,1.814a2.408,2.408,0,0,1,.227,3.107l-2.259,3.107a2.393,2.393,0,0,0-.218,2.444c.244.512.453,1.041.647,1.579a2.385,2.385,0,0,0,1.89,1.579l3.7.571a2.4,2.4,0,0,1,2.032,2.377v2.6A2.41,2.41,0,0,1,46.283,33.5l-3.7.571a2.4,2.4,0,0,0-1.9,1.579Z" transform="translate(-1 -1.969)" fill="#c7d9f9"/>
        <path id="Trazado_980672" data-name="Trazado 980672" d="M41.781,25.3a2.6,2.6,0,0,0,.789.277l3.7.571a2.4,2.4,0,0,1,2.041,2.377v2.6A2.4,2.4,0,0,1,46.274,33.5l-3.7.571a2.371,2.371,0,0,0-1.881,1.587,16.249,16.249,0,0,1-.655,1.57,2.429,2.429,0,0,0,.227,2.452l2.259,3.107a2.429,2.429,0,0,1-.227,3.107L40.5,47.715a2.374,2.374,0,0,1-3.133.235l-2.981-2.242a2.38,2.38,0,0,0-2.477-.227c-.5.235-1,.445-1.512.638a2.392,2.392,0,0,0-1.562,1.89l-.563,3.8a2.394,2.394,0,0,1-2.368,2.041H23.415A2.394,2.394,0,0,1,21.046,51.8l-.563-3.8a2.4,2.4,0,0,0-1.562-1.89c-.512-.193-1.016-.4-1.512-.638a2.381,2.381,0,0,0-2.477.227L11.951,47.95a2.374,2.374,0,0,1-3.133-.235L7.03,45.893A2.418,2.418,0,0,1,6.8,42.785l2.259-3.107a2.407,2.407,0,0,0,.227-2.452c-.244-.512-.462-1.041-.655-1.57a2.4,2.4,0,0,0-1.881-1.587l-3.7-.571A2.409,2.409,0,0,1,1,31.12v-2.6a2.4,2.4,0,0,1,2.041-2.377l3.7-.571a2.352,2.352,0,0,0,1.881-1.57c.193-.546.412-1.067.647-1.587a2.392,2.392,0,0,0-.218-2.452L6.786,16.86a2.429,2.429,0,0,1,.227-3.107L8.8,11.939a2.374,2.374,0,0,1,3.133-.235l3,2.242a2.378,2.378,0,0,0,2.477.227c.5-.235.991-.445,1.5-.638a2.392,2.392,0,0,0,1.562-1.9l.563-3.8A2.394,2.394,0,0,1,23.406,5.8H25.9a2.394,2.394,0,0,1,2.368,2.041l.563,3.8a2.33,2.33,0,0,0,.882,1.512" transform="translate(-1 -1.97)" fill="none" stroke="#2a3c65" stroke-linecap="round" stroke-linejoin="round" stroke-miterlimit="10" stroke-width="2.167"/>
        <ellipse id="Elipse_11555" data-name="Elipse 11555" cx="10.85" cy="10.892" rx="10.85" ry="10.892" transform="translate(12.799 16.956)" fill="#fff"/>
        <path id="Trazado_980673" data-name="Trazado 980673" d="M26.293,21.47a10.893,10.893,0,1,0,11.5,12.723" transform="translate(-3.441 -4.481)" fill="none" stroke="#2a3c65" stroke-linecap="round" stroke-linejoin="round" stroke-miterlimit="10" stroke-width="2.167"/>
        <g id="Grupo_1144130" data-name="Grupo 1144130" transform="translate(19.68)">
          <path id="Trazado_980674" data-name="Trazado 980674" d="M60.315,8.975l-2.671,2.637L50.75,4.582,53.4,1.945a2.433,2.433,0,0,1,3.452.025l3.477,3.544A2.451,2.451,0,0,1,60.315,8.975Z" transform="translate(-28.649 -1.24)" fill="#ff7daf"/>
          <path id="Trazado_980675" data-name="Trazado 980675" d="M60.315,8.975l-2.671,2.637L50.75,4.582,53.4,1.945a2.433,2.433,0,0,1,3.452.025l3.477,3.544A2.451,2.451,0,0,1,60.315,8.975Z" transform="translate(-28.649 -1.24)" fill="none" stroke="#2a3c65" stroke-linecap="round" stroke-linejoin="round" stroke-miterlimit="10" stroke-width="2.167"/>
          <path id="Trazado_980676" data-name="Trazado 980676" d="M33.4,35.911l-6.635,1.906a1.828,1.828,0,0,1-2.251-2.293L26.5,28.89Z" transform="translate(-24.434 -5.669)" fill="#ffd880"/>
          <path id="Trazado_980677" data-name="Trazado 980677" d="M33.4,35.911l-6.635,1.906a1.828,1.828,0,0,1-2.251-2.293L26.5,28.89Z" transform="translate(-24.434 -5.669)" fill="none" stroke="#2a3c65" stroke-linecap="round" stroke-linejoin="round" stroke-miterlimit="10" stroke-width="2.167"/>
          <path id="Trazado_980678" data-name="Trazado 980678" d="M33.793,32.121,26.89,25.1,46.928,5.23l6.9,7.021Z" transform="translate(-24.827 -1.879)" fill="#38fcc4"/>
          <path id="Trazado_980679" data-name="Trazado 980679" d="M31.977,30.279,29.55,27.81,49.588,7.94l2.427,2.469Z" transform="translate(-25.253 -2.313)" fill="#12d69e"/>
          <g id="Grupo_1144129-2" data-name="Grupo 1144129" transform="translate(2.063 3.351)">
            <path id="Trazado_980680" data-name="Trazado 980680" d="M33.793,32.121,26.89,25.1,46.928,5.23l6.9,7.021Z" transform="translate(-26.89 -5.23)" fill="none" stroke="#2a3c65" stroke-linecap="round" stroke-linejoin="round" stroke-miterlimit="10" stroke-width="2.167"/>
            <path id="Trazado_980681" data-name="Trazado 980681" d="M48.026,10.22,31.86,26.252" transform="translate(-27.686 -6.029)" fill="none" stroke="#2a3c65" stroke-linecap="round" stroke-linejoin="round" stroke-miterlimit="10" stroke-width="2.167"/>
            <path id="Trazado_980682" data-name="Trazado 980682" d="M50.91,13.17,34.76,29.194" transform="translate(-28.151 -6.502)" fill="none" stroke="#2a3c65" stroke-linecap="round" stroke-linejoin="round" stroke-miterlimit="10" stroke-width="2.167"/>
          </g>
        </g>
      </g>
    </g>
  </g>
</svg>
