<svg xmlns="http://www.w3.org/2000/svg" width="80" height="81.429" viewBox="0 0 80 81.429">
  <g id="Grupo_1143687" data-name="Grupo 1143687" transform="translate(-27.864 -23.895)">
    <path id="Trazado_978628" data-name="Trazado 978628" d="M34.732,38.331c0-4.182,4.733-7.572,10.571-7.572h1.606V58.976H34.732Z" transform="translate(-5.631 -5.628)" fill="#b3b3b3" fill-rule="evenodd"/>
    <path id="Trazado_978629" data-name="Trazado 978629" d="M409.809,333.211c0,4.182-4.733,7.572-10.571,7.572h-1.606V312.566h12.177v20.645Z" transform="translate(-303.184 -236.69)" fill="#b3b3b3" fill-rule="evenodd"/>
    <path id="Trazado_978630" data-name="Trazado 978630" d="M34.732,72.807c0,4.182,4.733,7.572,10.571,7.572h55.346c6.411,0,11.608,3.39,11.608,7.572v48.675c0-4.182-4.733-7.572-10.571-7.572H46.34c-6.411,0-11.608-3.39-11.608-7.572Z" transform="translate(-5.631 -40.104)" fill="#e6e6e6" fill-rule="evenodd"/>
    <path id="Trazado_978631" data-name="Trazado 978631" d="M150.107,199.2H108.361V143.987Zm-18.949-11.783-12.08-15.977v15.977Z" transform="translate(-66.002 -98.467)" fill="#88c8fe" fill-rule="evenodd"/>
    <path id="Trazado_978632" data-name="Trazado 978632" d="M334.138,91.917,338.766,90l10.307,24.912a2.5,2.5,0,1,1-4.628,1.915Z" transform="translate(-251.123 -54.203)" fill="#c89d8d" fill-rule="evenodd"/>
    <path id="Trazado_978633" data-name="Trazado 978633" d="M276.188,91.917,271.56,90l-10.307,24.912a2.5,2.5,0,0,0,4.628,1.915Z" transform="translate(-191.208 -54.203)" fill="#c89d8d" fill-rule="evenodd"/>
    <circle id="Elipse_11551" data-name="Elipse 11551" cx="7.012" cy="7.012" r="7.012" transform="translate(74.845 29.682) rotate(-22.514)" fill="#fa6e85"/>
    <circle id="Elipse_11552" data-name="Elipse 11552" cx="2.589" cy="2.589" r="2.589" transform="translate(81.409 30.904)" fill="#ffe177"/>
    <path id="Trazado_978634" data-name="Trazado 978634" d="M84,32.135a1.355,1.355,0,1,1-1.351,1.354A1.353,1.353,0,0,1,84,32.135Zm0,5.178a3.823,3.823,0,1,0-3.825-3.823A3.828,3.828,0,0,0,84,37.313ZM95.733,79.647a1.232,1.232,0,0,1-1.227,1.234H75.037a1.234,1.234,0,1,1,0-2.468h19.47A1.23,1.23,0,0,1,95.733,79.647Zm0-6.432a1.23,1.23,0,0,1-1.227,1.234H75.037a1.233,1.233,0,1,1,0-2.467h19.47A1.231,1.231,0,0,1,95.733,73.214ZM54.309,76.648l8.368,11.064H54.309ZM53.072,90.18H65.161a1.232,1.232,0,0,0,.977-1.977L54.059,72.226a1.233,1.233,0,0,0-2.214.743V88.946a1.231,1.231,0,0,0,1.227,1.234Zm52.318.928V47.843c0-3.434-4.751-6.338-10.374-6.338h-3.68l4.875,11.786h3.815a1.234,1.234,0,1,1,0,2.468H97.24l1.85,4.478a3.736,3.736,0,0,1-.967,4.216l1.933,4.662a1.237,1.237,0,0,1-2.287.944L95.848,65.4a3.749,3.749,0,0,1-3.669-2.3l-3.035-7.336H78.852l-3.035,7.336a3.732,3.732,0,0,1-3.659,2.3l-1.933,4.665a1.232,1.232,0,1,1-2.276-.944l1.923-4.662a3.735,3.735,0,0,1-.967-4.216l1.861-4.478h-2.8a1.234,1.234,0,0,1,0-2.468h3.815L76.658,41.5H39.673a13.592,13.592,0,0,1-9.335-3.394V81.375c0,3.434,4.751,6.337,10.374,6.337h.416v-42.2a1.233,1.233,0,0,1,2.214-.743L75.816,87.712H96.055a13.586,13.586,0,0,1,9.335,3.4Zm-9.335,11.748h-.374V90.18h.374c5.145,0,9.335,2.844,9.335,6.338S101.2,102.857,96.055,102.857ZM74.9,99.5h6.726L43.592,49.2v6.131h2.079a1.234,1.234,0,1,1,0,2.468H43.592v8.574h2.079a1.234,1.234,0,1,1,0,2.468H43.592V77.41h2.079a1.234,1.234,0,1,1,0,2.468H43.592v8.576h2.079a1.234,1.234,0,1,1,0,2.468H43.592V99.5h7.973V96.731a1.232,1.232,0,1,1,2.464,0V99.5H62V96.731a1.232,1.232,0,1,1,2.464,0V99.5h7.973V96.731a1.232,1.232,0,1,1,2.464,0V99.5ZM39.673,26.362h.374V39.037h-.374c-5.145,0-9.335-2.843-9.335-6.337S34.527,26.362,39.673,26.362ZM84,27.713a5.776,5.776,0,0,0-1.611,11.324h3.223A5.776,5.776,0,0,0,84,27.713Zm0,15.6,4.127,9.977H79.87Zm-9.543,9.977,5.27-12.751a8.141,8.141,0,0,0,2.349.966L77.2,53.291Zm-2.578,9.548a1.265,1.265,0,0,1-.686-1.659l2.235-5.421H76.18l-2.64,6.393a1.285,1.285,0,0,1-1.663.687ZM90.8,53.291,85.92,41.506a8.14,8.14,0,0,0,2.349-.966L93.55,53.291Zm6.019,7.889a1.274,1.274,0,0,1-1.663,1.656,1.251,1.251,0,0,1-.686-.684l-2.651-6.393h2.755ZM103.9,41.455a16.436,16.436,0,0,0-8.888-2.418h-4.7l-.073-.176a8.243,8.243,0,1,0-12.495,0l-.073.176H42.51V25.129a1.233,1.233,0,0,0-1.237-1.234h-1.6a14.151,14.151,0,0,0-8.191,2.447A7.863,7.863,0,0,0,27.864,32.7V81.375c0,2.453,1.414,4.721,3.96,6.388a16.435,16.435,0,0,0,8.888,2.417h.416v10.549a1.231,1.231,0,0,0,1.227,1.235H84.1a1.235,1.235,0,0,0,.988-1.978L77.677,90.18H93.217V104.09a1.234,1.234,0,0,0,1.237,1.234h1.6a14.143,14.143,0,0,0,8.191-2.448,7.863,7.863,0,0,0,3.617-6.359V47.843c0-2.453-1.414-4.721-3.96-6.388Z" fill="#1e2f3f" fill-rule="evenodd"/>
  </g>
</svg>
